<?xml version="1.0" encoding="utf-8"?>
<!-- Generator: Adobe Illustrator 21.1.0, SVG Export Plug-In . SVG Version: 6.00 Build 0)  -->
<svg version="1.1" id="图层_1" xmlns="http://www.w3.org/2000/svg" xmlns:xlink="http://www.w3.org/1999/xlink" x="0px" y="0px"
	 viewBox="0 0 69.5 62.1" style="enable-background:new 0 0 69.5 62.1;" xml:space="preserve">
<style type="text/css">
	.st0{fill:#4ACEFF;}
</style>
<title>资源 1</title>
<g id="图层_2">
	<g id="图层_1-2">
		<path class="st0" d="M64.8,0H4.7C2.1,0,0,2.1,0,4.7v43.5c0,2.6,2.1,4.7,4.7,4.7h21v3.5h-6.8c-0.8,0-1.4,0.6-1.4,1.4v2.9
			c0,0.8,0.6,1.4,1.4,1.4h31.7c0.8,0,1.4-0.7,1.4-1.4v-2.9c0-0.8-0.6-1.4-1.4-1.4h-6.7v-3.5h21c2.6,0,4.7-2.1,4.7-4.7V4.7
			C69.5,2.1,67.4,0,64.8,0C64.8,0,64.8,0,64.8,0z M65,37.1c0,2-1.6,3.5-3.5,3.5H8c-1.9,0-3.5-1.6-3.5-3.5V8.7c0-1.9,1.6-3.5,3.5-3.5
			h53.5c2,0,3.5,1.6,3.5,3.5V37.1z"/>
		<path class="st0" d="M55.6,9.8c-2,0-3.7,1.6-3.7,3.7c0,0.3,0,0.7,0.1,1l-12,9.5c-0.9-0.5-2.1-0.6-3.1-0.2l-5.1-5.2
			c0.8-1.9-0.1-4.1-2-4.9s-4.1,0.1-4.9,2c-0.3,0.8-0.4,1.6-0.2,2.4l-9.5,7.3c-0.5-0.3-1.2-0.5-1.8-0.5c-2.1,0-3.8,1.6-3.9,3.7
			s1.6,3.8,3.7,3.9s3.8-1.6,3.9-3.7c0-0.3,0-0.7-0.1-1l9.5-7.3c0.9,0.5,2.1,0.6,3.1,0.2l5.1,5.2c-0.8,1.9,0.1,4.1,2,4.9
			s4.1-0.1,4.9-2c0.3-0.8,0.4-1.7,0.2-2.5l12-9.6c0.5,0.3,1.1,0.4,1.7,0.4c2.1,0,3.8-1.7,3.8-3.8S57.7,9.8,55.6,9.8L55.6,9.8z"/>
	</g>
</g>
</svg>
