<svg xmlns="http://www.w3.org/2000/svg" viewBox="0 0 68.03 72.09"><defs><style>.cls-1{fill:#fff;}</style></defs><title>资源 4</title><g id="图层_2" data-name="图层 2"><g id="图层_1-2" data-name="图层 1"><path class="cls-1" d="M37.25,18.52a4.74,4.74,0,0,1-4.73-4.73V.29H4.73A4.74,4.74,0,0,0,0,5V58.71a4.74,4.74,0,0,0,4.73,4.73H32.35a20.46,20.46,0,0,1,.2-16.52H11.77a2.57,2.57,0,0,1-2.56-2.56v-.82A2.57,2.57,0,0,1,11.77,41H36.68a20.38,20.38,0,0,1,14.06-6V18.52Zm4.28,15.84A2.57,2.57,0,0,1,39,36.91H11.77a2.57,2.57,0,0,1-2.56-2.56v-.82A2.57,2.57,0,0,1,11.77,31H39a2.57,2.57,0,0,1,2.56,2.56Zm0-10A2.57,2.57,0,0,1,39,26.91H11.77a2.57,2.57,0,0,1-2.56-2.56v-.82A2.57,2.57,0,0,1,11.77,21H39a2.57,2.57,0,0,1,2.56,2.56Z"/><path class="cls-1" d="M35.47,0V10.52a4.74,4.74,0,0,0,4.73,4.73h11Z"/><path class="cls-1" d="M51.35,38.73A16.68,16.68,0,1,0,68,55.41,16.68,16.68,0,0,0,51.35,38.73Zm6.34,18a1.65,1.65,0,0,1,0,3.31H52.55v4.24a1.65,1.65,0,1,1-3.31,0V60H45a1.65,1.65,0,0,1,0-3.31h4.24v-2H45a1.65,1.65,0,0,1,0-3.31h2.83l-3.25-3.65a1.65,1.65,0,1,1,2.47-2.2l3.85,4.32,3.93-4.33a1.65,1.65,0,1,1,2.45,2.22L54,51.34h3.71a1.65,1.65,0,0,1,0,3.31H52.55v2Z"/></g></g></svg>