<?xml version="1.0" encoding="utf-8"?>
<!-- Generator: Adobe Illustrator 21.1.0, SVG Export Plug-In . SVG Version: 6.00 Build 0)  -->
<svg version="1.1" id="图层_1" xmlns="http://www.w3.org/2000/svg" xmlns:xlink="http://www.w3.org/1999/xlink" x="0px" y="0px"
	 viewBox="0 0 78.3 77.3" style="enable-background:new 0 0 78.3 77.3;" xml:space="preserve">
<style type="text/css">
	.st0{fill:#6DD7FF;}
</style>
<title>资源 8</title>
<g id="图层_2">
	<g id="图层_1-2">
		<path class="st0" d="M9.1,5.2l16.2-0.3c1.4,0,2.4-1.1,2.4-2.5C27.7,1,26.6,0,25.3,0L2.4,0.5C1.1,0.5,0,1.6,0,2.9C0,3,0,3,0,3
			l0.5,21.9c0,1.3,1.1,2.4,2.4,2.4H3c1.3,0,2.4-1.1,2.4-2.5c0,0,0,0,0,0L5,8l21.5,21.5c1,1,2.5,1,3.5,0c1-1,1-2.5,0-3.5l0,0L9.1,5.2
			z"/>
		<path class="st0" d="M50,30.2c0.6,0,1.3-0.3,1.7-0.7L73.3,8l-0.3,16.8c0,1.3,1,2.5,2.4,2.5c0,0,0,0,0,0h0.1c1.3,0,2.4-1.1,2.4-2.4
			L78.3,3c0.1-1.3-1-2.5-2.3-2.5c0,0,0,0-0.1,0L53,0c-1.4,0-2.5,1-2.5,2.4s1,2.5,2.4,2.5l16.2,0.3L48.3,26c-1,1-1,2.5,0,3.5
			C48.7,30,49.4,30.2,50,30.2z"/>
		<path class="st0" d="M26.5,47.8L5,69.3l0.3-16.8c0.1-1.3-1-2.5-2.3-2.5c0,0,0,0,0,0H2.9c-1.3,0-2.4,1.1-2.4,2.4c0,0,0,0,0,0
			L0,74.4c0,1.3,1,2.5,2.4,2.5c0,0,0,0,0,0l22.9,0.5h0c1.4,0,2.4-1.1,2.4-2.4s-1.1-2.4-2.4-2.4L9.1,72.1L30,51.3c1-1,1-2.5,0-3.5
			S27.5,46.9,26.5,47.8L26.5,47.8L26.5,47.8z"/>
		<path class="st0" d="M75.3,50c-1.3,0-2.4,1.1-2.4,2.5c0,0,0,0,0,0l0.3,16.8L51.8,47.8c-1-1-2.5-1-3.5,0s-1,2.5,0,3.5l0,0
			l20.8,20.8l-16.2,0.3c-1.4,0-2.4,1.1-2.4,2.4s1.1,2.4,2.4,2.4l0,0H53l22.9-0.5c1.3,0,2.4-1.1,2.4-2.5c0,0,0,0,0,0l-0.5-21.9
			C77.8,51.1,76.7,50,75.3,50C75.3,50,75.3,50,75.3,50z"/>
	</g>
</g>
</svg>
