<svg xmlns="http://www.w3.org/2000/svg" viewBox="0 0 78.27 77.33"><defs><style>.cls-1{fill:#fff;}</style></defs><title>资源 8</title><g id="图层_2" data-name="图层 2"><g id="图层_1-2" data-name="图层 1"><path class="cls-1" d="M9.14,5.22l16.22-.33A2.44,2.44,0,0,0,25.26,0L2.4.46A2.44,2.44,0,0,0,0,3L.46,24.9a2.44,2.44,0,0,0,2.44,2.39H3a2.44,2.44,0,0,0,2.39-2.5L5,8,26.51,29.51A2.44,2.44,0,0,0,30,26.05Z"/><path class="cls-1" d="M50,30.22a2.44,2.44,0,0,0,1.73-.72L73.27,8l-.35,16.8a2.44,2.44,0,0,0,2.39,2.5h.05a2.44,2.44,0,0,0,2.44-2.39L78.27,3A2.44,2.44,0,0,0,75.88.46L53,0a2.44,2.44,0,0,0-.1,4.89l16.22.33L48.3,26.05A2.44,2.44,0,0,0,50,30.22Z"/><path class="cls-1" d="M26.51,47.82,5,69.34l.35-16.8A2.44,2.44,0,0,0,3,50H2.91A2.44,2.44,0,0,0,.46,52.43L0,74.37a2.44,2.44,0,0,0,2.39,2.5l22.86.46h.05a2.44,2.44,0,0,0,0-4.89L9.14,72.11,30,51.28a2.44,2.44,0,1,0-3.46-3.46Z"/><path class="cls-1" d="M75.31,50a2.44,2.44,0,0,0-2.39,2.5l.35,16.8L51.76,47.82a2.44,2.44,0,1,0-3.46,3.46L69.14,72.11l-16.22.33a2.44,2.44,0,0,0,0,4.89H53l22.86-.46a2.44,2.44,0,0,0,2.39-2.5l-.46-21.94A2.44,2.44,0,0,0,75.31,50Z"/></g></g></svg>