<svg xmlns="http://www.w3.org/2000/svg" viewBox="0 0 74.54 54.8"><defs><style>.cls-1{fill:#fff;}</style></defs><title>资源 5</title><g id="图层_2" data-name="图层 2"><g id="图层_1-2" data-name="图层 1"><circle class="cls-1" cx="25.41" cy="25.7" r="5.75"/><path class="cls-1" d="M48.93,20.78l-4.61-.49,0,.06a19.53,19.53,0,0,0-1.8-4.25l.07-.05,2.84-3.51A2.67,2.67,0,0,0,45.31,9L42.23,5.89a2.67,2.67,0,0,0-3.58-.09L35.16,8.62,35,8.68a19.53,19.53,0,0,0-4.21-1.74V6.78l-.45-4.31A2.67,2.67,0,0,0,27.73,0H23.38a2.67,2.67,0,0,0-2.59,2.47l-.44,4.22-.06.18a19.53,19.53,0,0,0-4.43,1.79l-.12-.08L12.54,6A2.67,2.67,0,0,0,9,6.09L5.89,9.17a2.67,2.67,0,0,0-.09,3.58L8.35,15.9l0,.11a19.53,19.53,0,0,0-1.92,4.61l-.07,0-3.92.41A2.67,2.67,0,0,0,0,23.66V28a2.67,2.67,0,0,0,2.47,2.59l4,.42a19.52,19.52,0,0,0,2,4.77L6,38.85a2.67,2.67,0,0,0,.09,3.58l3.08,3.08a2.67,2.67,0,0,0,3.58.09l3.14-2.54a19.53,19.53,0,0,0,4.76,1.86l.42,4a2.67,2.67,0,0,0,2.59,2.47H28a2.67,2.67,0,0,0,2.59-2.47l.45-4.25a19.53,19.53,0,0,0,4.46-2l3.34,2.7a2.67,2.67,0,0,0,3.58-.09l3.08-3.08a2.67,2.67,0,0,0,.09-3.58l-2.85-3.52a19.54,19.54,0,0,0,1.68-4.33l4.5-.47a2.67,2.67,0,0,0,2.47-2.59V23.38A2.67,2.67,0,0,0,48.93,20.78ZM5.74,25.7s0-.06,0-.09h0c0,.06,0,.11,0,.17S5.74,25.73,5.74,25.7ZM25.41,39.07A13.22,13.22,0,1,1,38.63,25.84,13.24,13.24,0,0,1,25.41,39.07Z"/><circle class="cls-1" cx="59.84" cy="40.18" r="3.37" transform="translate(-1.06 78.74) rotate(-66.23)"/><path class="cls-1" d="M73.6,43.1l-2.35-1.35,0,0a11.43,11.43,0,0,0,0-2.7h0l2.35-1.21a1.57,1.57,0,0,0,.8-1.94l-.92-2.38a1.57,1.57,0,0,0-1.9-.89l-2.53.69H69a11.43,11.43,0,0,0-1.85-1.93l0-.09L68,28.9A1.57,1.57,0,0,0,67.15,27l-2.33-1a1.57,1.57,0,0,0-2,.71L61.61,28.8l-.07.08a11.43,11.43,0,0,0-2.8-.09l0-.07-1.1-2.13a1.57,1.57,0,0,0-1.94-.8l-2.38.92a1.57,1.57,0,0,0-.89,1.9L53,30.91V31a11.43,11.43,0,0,0-2.12,2h0l-2.2-.7a1.57,1.57,0,0,0-1.93.81l-1,2.33a1.57,1.57,0,0,0,.71,2l2,1.16a11.43,11.43,0,0,0,0,3l-2,1.05a1.57,1.57,0,0,0-.8,1.94L46.46,47a1.57,1.57,0,0,0,1.9.89l2.28-.62a11.44,11.44,0,0,0,2.11,2.12L52,51.6a1.57,1.57,0,0,0,.81,1.93l2.33,1a1.57,1.57,0,0,0,2-.71l1.24-2.17a11.43,11.43,0,0,0,2.86,0l1.15,2.23a1.57,1.57,0,0,0,1.94.8l2.38-.92a1.57,1.57,0,0,0,.89-1.9l-.7-2.56a11.44,11.44,0,0,0,1.92-1.92l2.52.81a1.57,1.57,0,0,0,1.93-.81l1-2.33A1.57,1.57,0,0,0,73.6,43.1ZM49.3,35.54l0,0h0l0,.09Zm7.38,11.8a7.74,7.74,0,1,1,10.2-4A7.75,7.75,0,0,1,56.68,47.34Z"/></g></g></svg>