<svg xmlns="http://www.w3.org/2000/svg" viewBox="0 0 62.36 72.5"><defs><style>.cls-1{fill:#fff;}</style></defs><title>资源 2</title><g id="图层_2" data-name="图层 2"><g id="图层_1-2" data-name="图层 1"><path class="cls-1" d="M22.41,13.76H40.09c.24-9,8.29-7,8-12.1C47.94-.54,43.54,5.44,40,3.87,37.36,2.68,39.34,1.54,39.9,0c-8.2-.56-6.32,5.22-11.69,6.08-3.37.54-3.44-3.26-7-5.43-2.87-1.11-4,1.07-.58,8.41A27.21,27.21,0,0,1,22.41,13.76Z"/><path class="cls-1" d="M39.82,46.62a10.32,10.32,0,0,0-6.46-1.76q-1.71,0-2.89,0L28.71,45V55.8a2.21,2.21,0,0,0,1.36,2.06,8.49,8.49,0,0,0,3.79.69A8.85,8.85,0,0,0,40,56.67a7.06,7.06,0,0,0,2.11-5.55A5.45,5.45,0,0,0,39.82,46.62Z"/><path class="cls-1" d="M35.85,42.65a6,6,0,0,0,2.52-1.37,5.16,5.16,0,0,0,1.37-2,8,8,0,0,0,.39-2.63,5,5,0,0,0-1.71-4Q36.71,31.18,33,31.18l-2.15,0-2.17.05V43.11H32.1A13.46,13.46,0,0,0,35.85,42.65Z"/><path class="cls-1" d="M41.86,17.75a4.37,4.37,0,0,1-1.8-1.81H22.34a4.38,4.38,0,0,1-1.82,1.81C-1.1,29.26.08,53.51.08,53.51-1,67,9.84,71.33,12.86,72.28a4.73,4.73,0,0,0,1.42.22h32.2a5.1,5.1,0,0,0,.78-.06c14.78-2.29,15.1-14,15.1-14C62.39,29.71,47.6,20.82,41.86,17.75Zm5.67,37.88a9,9,0,0,1-3,2.6,15.34,15.34,0,0,1-4,1.52,20.69,20.69,0,0,1-4.66.52H33.75v4.66H31V60.27H28.17v4.66H25.38V60.27H17.86V58.73q.64,0,1.87-.18a8.53,8.53,0,0,0,1.76-.34,2.34,2.34,0,0,0,1.18-.81A2.29,2.29,0,0,0,23,56.08V34a2.67,2.67,0,0,0-.31-1.3,2.2,2.2,0,0,0-1.22-.91,8.84,8.84,0,0,0-1.79-.5A16,16,0,0,0,18.05,31V29.48h7.33V24.66h2.79v4.82H31V24.66h2.79v4.82h1.8a22.55,22.55,0,0,1,3.89.33A13.19,13.19,0,0,1,43,31,7.18,7.18,0,0,1,45.58,33a5,5,0,0,1,1,3.17,5.77,5.77,0,0,1-.72,2.9,6.68,6.68,0,0,1-2,2.18A12.4,12.4,0,0,1,41,42.73a19.31,19.31,0,0,1-3.43.92v.19a24.28,24.28,0,0,1,3.65.66,14,14,0,0,1,3.59,1.42,8.47,8.47,0,0,1,2.75,2.39,5.84,5.84,0,0,1,1.1,3.58A6.18,6.18,0,0,1,47.53,55.62Z"/></g></g></svg>